
<svg xmlns="http://www.w3.org/2000/svg" viewBox="0 0 52.7 47.9" enable-background="new 0 0 52.7 47.9"><style type="text/css">.st0{fill:#4D4D4D;}</style><g id="Collection_block"><path d="M43.4 29.3c-5.1 0-9.3 4.2-9.3 9.3 0 5.1 4.2 9.3 9.3 9.3 5.1 0 9.3-4.2 9.3-9.3 0-5.1-4.2-9.3-9.3-9.3zm3.5 10H44v2.9c0 .4-.4.7-.7.7s-.7-.4-.7-.7v-2.9h-2.9c-.4 0-.7-.4-.7-.7 0-.4.4-.7.7-.7h2.9V35c0-.4.4-.7.7-.7s.7.4.7.7v2.9h2.9c.4 0 .7.4.7.7 0 .3-.3.7-.7.7zm-25.5-18h-16v-16h16v16zm0 3.7h-16v16h16V25zM41.1 5.3H25v16h16v-16zM29.8 38.5c0-6.7 4.9-12.2 11.3-13.2V25H25v16h5c-.1-.8-.2-1.7-.2-2.5zM31.8 46.2H.5c-.3 0-.5-.2-.5-.5V.5C0 .2.2 0 .5 0h45.2c.3 0 .5.2.5.5v24.8h-1V1H1v44.2h30.8v1z" class="st0"/></g></svg>
