<?xml version="1.0" encoding="utf-8"?>
<!-- Generated by IcoMoon.io -->
<!DOCTYPE svg PUBLIC "-//W3C//DTD SVG 1.1//EN" "http://www.w3.org/Graphics/SVG/1.1/DTD/svg11.dtd">
<svg version="1.1" xmlns="http://www.w3.org/2000/svg" xmlns:xlink="http://www.w3.org/1999/xlink" width="20" height="20" viewBox="0 0 20 20">
<path fill="#444444" d="M4.286 13.214v0.714q0 0.145-0.106 0.251t-0.251 0.106h-0.714q-0.145 0-0.251-0.106t-0.106-0.251v-0.714q0-0.145 0.106-0.251t0.251-0.106h0.714q0.145 0 0.251 0.106t0.106 0.251zM4.286 10.357v0.714q0 0.145-0.106 0.251t-0.251 0.106h-0.714q-0.145 0-0.251-0.106t-0.106-0.251v-0.714q0-0.145 0.106-0.251t0.251-0.106h0.714q0.145 0 0.251 0.106t0.106 0.251zM4.286 7.5v0.714q0 0.145-0.106 0.251t-0.251 0.106h-0.714q-0.145 0-0.251-0.106t-0.106-0.251v-0.714q0-0.145 0.106-0.251t0.251-0.106h0.714q0.145 0 0.251 0.106t0.106 0.251zM17.143 13.214v0.714q0 0.145-0.106 0.251t-0.251 0.106h-10.714q-0.145 0-0.251-0.106t-0.106-0.251v-0.714q0-0.145 0.106-0.251t0.251-0.106h10.714q0.145 0 0.251 0.106t0.106 0.251zM17.143 10.357v0.714q0 0.145-0.106 0.251t-0.251 0.106h-10.714q-0.145 0-0.251-0.106t-0.106-0.251v-0.714q0-0.145 0.106-0.251t0.251-0.106h10.714q0.145 0 0.251 0.106t0.106 0.251zM17.143 7.5v0.714q0 0.145-0.106 0.251t-0.251 0.106h-10.714q-0.145 0-0.251-0.106t-0.106-0.251v-0.714q0-0.145 0.106-0.251t0.251-0.106h10.714q0.145 0 0.251 0.106t0.106 0.251zM18.571 15.357v-9.286q0-0.145-0.106-0.251t-0.251-0.106h-16.429q-0.145 0-0.251 0.106t-0.106 0.251v9.286q0 0.145 0.106 0.251t0.251 0.106h16.429q0.145 0 0.251-0.106t0.106-0.251zM20 3.214v12.143q0 0.737-0.525 1.261t-1.261 0.525h-16.429q-0.737 0-1.261-0.525t-0.525-1.261v-12.143q0-0.737 0.525-1.261t1.261-0.525h16.429q0.737 0 1.261 0.525t0.525 1.261z"></path>
</svg>
