<?xml version="1.0" encoding="utf-8"?>
<!-- Generated by IcoMoon.io -->
<!DOCTYPE svg PUBLIC "-//W3C//DTD SVG 1.1//EN" "http://www.w3.org/Graphics/SVG/1.1/DTD/svg11.dtd">
<svg version="1.1" xmlns="http://www.w3.org/2000/svg" xmlns:xlink="http://www.w3.org/1999/xlink" width="20" height="20" viewBox="0 0 20 20">
<path fill="#444444" d="M16.384 4.241q0.313 0.313 0.536 0.848t0.223 0.982v12.857q0 0.446-0.313 0.759t-0.759 0.313h-15q-0.446 0-0.759-0.313t-0.313-0.759v-17.857q0-0.446 0.313-0.759t0.759-0.313h10q0.446 0 0.982 0.223t0.848 0.536zM11.429 1.518v4.196h4.196q-0.112-0.324-0.246-0.458l-3.493-3.493q-0.134-0.134-0.458-0.246zM15.714 18.571v-11.429h-4.643q-0.446 0-0.759-0.313t-0.313-0.759v-4.643h-8.571v17.143h14.286z"></path>
</svg>
