<?xml version="1.0" encoding="utf-8"?>
<!-- Generated by IcoMoon.io -->
<!DOCTYPE svg PUBLIC "-//W3C//DTD SVG 1.1//EN" "http://www.w3.org/Graphics/SVG/1.1/DTD/svg11.dtd">
<svg version="1.1" xmlns="http://www.w3.org/2000/svg" xmlns:xlink="http://www.w3.org/1999/xlink" width="21" height="20" viewBox="0 0 21 20">
<path fill="#444444" d="M7.143 6.429q0 0.893-0.625 1.518t-1.518 0.625-1.518-0.625-0.625-1.518 0.625-1.518 1.518-0.625 1.518 0.625 0.625 1.518zM18.571 10.714v5h-15.714v-2.143l3.571-3.571 1.786 1.786 5.714-5.714zM19.643 2.857h-17.857q-0.145 0-0.251 0.106t-0.106 0.251v13.571q0 0.145 0.106 0.251t0.251 0.106h17.857q0.145 0 0.251-0.106t0.106-0.251v-13.571q0-0.145-0.106-0.251t-0.251-0.106zM21.429 3.214v13.571q0 0.737-0.525 1.261t-1.261 0.525h-17.857q-0.737 0-1.261-0.525t-0.525-1.261v-13.571q0-0.737 0.525-1.261t1.261-0.525h17.857q0.737 0 1.261 0.525t0.525 1.261z"></path>
</svg>
