<?xml version="1.0" encoding="utf-8"?>
<!-- Generated by IcoMoon.io -->
<!DOCTYPE svg PUBLIC "-//W3C//DTD SVG 1.1//EN" "http://www.w3.org/Graphics/SVG/1.1/DTD/svg11.dtd">
<svg version="1.1" xmlns="http://www.w3.org/2000/svg" xmlns:xlink="http://www.w3.org/1999/xlink" width="16" height="20" viewBox="0 0 16 20">
<path fill="#444444" d="M4.286 15q0 0.893-0.625 1.518t-1.518 0.625-1.518-0.625-0.625-1.518 0.625-1.518 1.518-0.625 1.518 0.625 0.625 1.518zM10 16.373q0.022 0.313-0.19 0.536-0.201 0.234-0.525 0.234h-1.507q-0.279 0-0.48-0.184t-0.223-0.463q-0.246-2.556-2.059-4.369t-4.369-2.059q-0.279-0.022-0.463-0.223t-0.184-0.48v-1.507q0-0.324 0.234-0.525 0.19-0.19 0.48-0.19h0.056q1.786 0.145 3.415 0.898t2.891 2.026q1.272 1.261 2.026 2.891t0.898 3.415zM15.714 16.395q0.022 0.301-0.201 0.525-0.201 0.223-0.513 0.223h-1.596q-0.29 0-0.497-0.195t-0.218-0.474q-0.134-2.4-1.127-4.559t-2.584-3.75-3.75-2.584-4.559-1.138q-0.279-0.011-0.474-0.218t-0.195-0.485v-1.596q0-0.313 0.223-0.513 0.201-0.201 0.491-0.201h0.033q2.924 0.145 5.597 1.339t4.749 3.281q2.087 2.076 3.281 4.749t1.339 5.597z"></path>
</svg>
