<?xml version="1.0" encoding="utf-8"?>
<!-- Generated by IcoMoon.io -->
<!DOCTYPE svg PUBLIC "-//W3C//DTD SVG 1.1//EN" "http://www.w3.org/Graphics/SVG/1.1/DTD/svg11.dtd">
<svg version="1.1" xmlns="http://www.w3.org/2000/svg" xmlns:xlink="http://www.w3.org/1999/xlink" width="19" height="20" viewBox="0 0 19 20">
<path fill="#444444" d="M1.429 18.571h3.214v-3.214h-3.214v3.214zM5.357 18.571h3.571v-3.214h-3.571v3.214zM1.429 14.643h3.214v-3.571h-3.214v3.571zM5.357 14.643h3.571v-3.571h-3.571v3.571zM1.429 10.357h3.214v-3.214h-3.214v3.214zM9.643 18.571h3.571v-3.214h-3.571v3.214zM5.357 10.357h3.571v-3.214h-3.571v3.214zM13.929 18.571h3.214v-3.214h-3.214v3.214zM9.643 14.643h3.571v-3.571h-3.571v3.571zM5.714 5v-3.214q0-0.145-0.106-0.251t-0.251-0.106h-0.714q-0.145 0-0.251 0.106t-0.106 0.251v3.214q0 0.145 0.106 0.251t0.251 0.106h0.714q0.145 0 0.251-0.106t0.106-0.251zM13.929 14.643h3.214v-3.571h-3.214v3.571zM9.643 10.357h3.571v-3.214h-3.571v3.214zM13.929 10.357h3.214v-3.214h-3.214v3.214zM14.286 5v-3.214q0-0.145-0.106-0.251t-0.251-0.106h-0.714q-0.145 0-0.251 0.106t-0.106 0.251v3.214q0 0.145 0.106 0.251t0.251 0.106h0.714q0.145 0 0.251-0.106t0.106-0.251zM18.571 4.286v14.286q0 0.58-0.424 1.004t-1.004 0.424h-15.714q-0.58 0-1.004-0.424t-0.424-1.004v-14.286q0-0.58 0.424-1.004t1.004-0.424h1.429v-1.071q0-0.737 0.525-1.261t1.261-0.525h0.714q0.737 0 1.261 0.525t0.525 1.261v1.071h4.286v-1.071q0-0.737 0.525-1.261t1.261-0.525h0.714q0.737 0 1.261 0.525t0.525 1.261v1.071h1.429q0.58 0 1.004 0.424t0.424 1.004z"></path>
</svg>
