<?xml version="1.0" encoding="utf-8"?>
<!-- Generated by IcoMoon.io -->
<!DOCTYPE svg PUBLIC "-//W3C//DTD SVG 1.1//EN" "http://www.w3.org/Graphics/SVG/1.1/DTD/svg11.dtd">
<svg version="1.1" xmlns="http://www.w3.org/2000/svg" xmlns:xlink="http://www.w3.org/1999/xlink" width="21" height="20" viewBox="0 0 21 20">
<path fill="#444444" d="M6.886 15.614l-0.558 0.558q-0.112 0.112-0.257 0.112t-0.257-0.112l-5.201-5.201q-0.112-0.112-0.112-0.257t0.112-0.257l5.201-5.201q0.112-0.112 0.257-0.112t0.257 0.112l0.558 0.558q0.112 0.112 0.112 0.257t-0.112 0.257l-4.386 4.386 4.386 4.386q0.112 0.112 0.112 0.257t-0.112 0.257zM13.482 3.705l-4.163 14.408q-0.045 0.145-0.173 0.218t-0.262 0.028l-0.692-0.19q-0.145-0.045-0.218-0.173t-0.028-0.273l4.163-14.408q0.045-0.145 0.173-0.218t0.262-0.028l0.692 0.19q0.145 0.045 0.218 0.173t0.028 0.273zM20.815 10.971l-5.201 5.201q-0.112 0.112-0.257 0.112t-0.257-0.112l-0.558-0.558q-0.112-0.112-0.112-0.257t0.112-0.257l4.386-4.386-4.386-4.386q-0.112-0.112-0.112-0.257t0.112-0.257l0.558-0.558q0.112-0.112 0.257-0.112t0.257 0.112l5.201 5.201q0.112 0.112 0.112 0.257t-0.112 0.257z"></path>
</svg>
