<?xml version="1.0" encoding="utf-8"?>
<!-- Generated by IcoMoon.io -->
<!DOCTYPE svg PUBLIC "-//W3C//DTD SVG 1.1//EN" "http://www.w3.org/Graphics/SVG/1.1/DTD/svg11.dtd">
<svg version="1.1" xmlns="http://www.w3.org/2000/svg" xmlns:xlink="http://www.w3.org/1999/xlink" width="21" height="20" viewBox="0 0 21 20">
<path fill="#444444" d="M4.286 17.857v-1.429q0-0.29-0.212-0.502t-0.502-0.212h-1.429q-0.29 0-0.502 0.212t-0.212 0.502v1.429q0 0.29 0.212 0.502t0.502 0.212h1.429q0.29 0 0.502-0.212t0.212-0.502zM4.286 13.571v-1.429q0-0.29-0.212-0.502t-0.502-0.212h-1.429q-0.29 0-0.502 0.212t-0.212 0.502v1.429q0 0.29 0.212 0.502t0.502 0.212h1.429q0.29 0 0.502-0.212t0.212-0.502zM4.286 9.286v-1.429q0-0.29-0.212-0.502t-0.502-0.212h-1.429q-0.29 0-0.502 0.212t-0.212 0.502v1.429q0 0.29 0.212 0.502t0.502 0.212h1.429q0.29 0 0.502-0.212t0.212-0.502zM15.714 17.857v-5.714q0-0.29-0.212-0.502t-0.502-0.212h-8.571q-0.29 0-0.502 0.212t-0.212 0.502v5.714q0 0.29 0.212 0.502t0.502 0.212h8.571q0.29 0 0.502-0.212t0.212-0.502zM4.286 5v-1.429q0-0.29-0.212-0.502t-0.502-0.212h-1.429q-0.29 0-0.502 0.212t-0.212 0.502v1.429q0 0.29 0.212 0.502t0.502 0.212h1.429q0.29 0 0.502-0.212t0.212-0.502zM20 17.857v-1.429q0-0.29-0.212-0.502t-0.502-0.212h-1.429q-0.29 0-0.502 0.212t-0.212 0.502v1.429q0 0.29 0.212 0.502t0.502 0.212h1.429q0.29 0 0.502-0.212t0.212-0.502zM15.714 9.286v-5.714q0-0.29-0.212-0.502t-0.502-0.212h-8.571q-0.29 0-0.502 0.212t-0.212 0.502v5.714q0 0.29 0.212 0.502t0.502 0.212h8.571q0.29 0 0.502-0.212t0.212-0.502zM20 13.571v-1.429q0-0.29-0.212-0.502t-0.502-0.212h-1.429q-0.29 0-0.502 0.212t-0.212 0.502v1.429q0 0.29 0.212 0.502t0.502 0.212h1.429q0.29 0 0.502-0.212t0.212-0.502zM20 9.286v-1.429q0-0.29-0.212-0.502t-0.502-0.212h-1.429q-0.29 0-0.502 0.212t-0.212 0.502v1.429q0 0.29 0.212 0.502t0.502 0.212h1.429q0.29 0 0.502-0.212t0.212-0.502zM20 5v-1.429q0-0.29-0.212-0.502t-0.502-0.212h-1.429q-0.29 0-0.502 0.212t-0.212 0.502v1.429q0 0.29 0.212 0.502t0.502 0.212h1.429q0.29 0 0.502-0.212t0.212-0.502zM21.429 3.214v15q0 0.737-0.525 1.261t-1.261 0.525h-17.857q-0.737 0-1.261-0.525t-0.525-1.261v-15q0-0.737 0.525-1.261t1.261-0.525h17.857q0.737 0 1.261 0.525t0.525 1.261z"></path>
</svg>
